<svg width="24" height="24" viewBox="0 0 24 24" fill="none" xmlns="http://www.w3.org/2000/svg">
<g id="dental">
<path id="Vector" d="M19.8499 8.52C19.8354 8.22573 19.7885 7.93396 19.7099 7.65C19.5767 7.17065 19.3336 6.72896 18.9999 6.36L18.8299 6.17C18.6899 6.02 18.5499 5.87 18.3899 5.72C17.7141 5.06826 16.8087 4.70899 15.8699 4.72C15.2319 4.75919 14.6026 4.88708 13.9999 5.1L13.7899 5.16C13.2393 5.33771 12.6736 5.4649 12.0999 5.54C12.0033 5.54499 11.9065 5.54499 11.8099 5.54C11.7166 5.54501 11.6232 5.54501 11.5299 5.54C10.9562 5.4649 10.3905 5.33771 9.8399 5.16L9.6199 5.1C9.02218 4.8991 8.39969 4.78134 7.7699 4.75C6.83068 4.73682 5.92452 5.0964 5.2499 5.75C5.0899 5.9 4.9499 6.05 4.8099 6.2L4.6299 6.39C4.29578 6.7504 4.04637 7.18088 3.8999 7.65C3.82133 7.93396 3.77438 8.22573 3.7599 8.52C3.72903 9.23674 3.84824 9.95202 4.1099 10.62C4.2199 10.95 4.3399 11.27 4.4599 11.62C4.5799 11.97 4.5899 11.95 4.6499 12.12C4.7099 12.29 4.6499 12.21 4.6499 12.26C4.67601 12.3525 4.70945 12.4428 4.7499 12.53C4.85478 12.7845 4.91565 13.0551 4.9299 13.33V13.89C4.9299 14.38 4.9899 14.89 5.0299 15.38C5.06469 15.9898 5.1687 16.5937 5.3399 17.18L5.4399 17.49C5.4999 17.68 5.5599 17.88 5.6299 18.07C5.78264 18.5119 6.02045 18.9195 6.3299 19.27C6.64323 19.6322 7.07613 19.8699 7.5499 19.94C8.03437 20.0213 8.53214 19.9446 8.9697 19.7213C9.40726 19.4981 9.76143 19.14 9.9799 18.7C10.1969 18.3018 10.3648 17.8787 10.4799 17.44L10.5499 17.22C10.6599 16.86 10.7499 16.49 10.8399 16.13C10.9125 15.8272 11.0234 15.5348 11.1699 15.26C11.2151 15.15 11.292 15.0558 11.3908 14.9896C11.4896 14.9233 11.6059 14.888 11.7249 14.888C11.8439 14.888 11.9602 14.9233 12.059 14.9896C12.1578 15.0558 12.2347 15.15 12.2799 15.26C12.4264 15.5348 12.5373 15.8272 12.6099 16.13C12.6999 16.49 12.7899 16.86 12.8999 17.22L12.9699 17.44C13.085 17.8787 13.2529 18.3018 13.4699 18.7C13.701 19.1499 14.0745 19.5106 14.5322 19.7259C14.9899 19.9412 15.506 19.9989 15.9999 19.89C16.4737 19.8199 16.9066 19.5822 17.2199 19.22C17.5293 18.8695 17.7672 18.4619 17.9199 18.02C17.9899 17.83 18.0499 17.63 18.1099 17.44L18.2099 17.13C18.3811 16.5437 18.4851 15.9398 18.5199 15.33C18.5199 14.83 18.5899 14.33 18.6199 13.84V13.28C18.6292 13.0044 18.6903 12.733 18.7999 12.48C18.7999 12.39 18.8699 12.29 18.8999 12.21C18.8941 12.1635 18.8941 12.1165 18.8999 12.07C18.9599 11.9 19.0299 11.74 19.0899 11.57C19.1499 11.4 19.3299 10.95 19.4399 10.57C19.7153 9.92188 19.8548 9.22418 19.8499 8.52Z" stroke="black" stroke-width="1.5" stroke-miterlimit="10"/>
</g>
</svg>
