<svg width="127" height="31" viewBox="0 0 127 31" fill="none" xmlns="http://www.w3.org/2000/svg">
<path d="M32.3738 9.01097C35.0513 9.01097 37.4021 10.1805 39.0233 11.8362V9.58853H43.545V28.9368H39.0233V26.7036L38.9651 26.7685C37.4426 28.4242 35.1831 29.4446 32.5005 29.5096L32.3586 29.512H32.2243C26.1498 29.512 21.965 25.2645 21.965 19.2603C21.9625 13.3162 26.3195 9.01097 32.3738 9.01097ZM80.0732 9.01097C82.7508 9.01097 85.0078 10.0843 86.629 11.7375L86.7227 11.8338V9.58612H91.2444V28.9344H86.7227V26.7012L86.6645 26.7661C85.1421 28.4218 82.8825 29.4422 80.1999 29.5072L80.058 29.5096H79.9238C73.8492 29.5096 69.6645 25.2621 69.6645 19.2579C69.6619 13.3162 74.019 9.01097 80.0732 9.01097ZM67.4327 1.5099V28.9368H62.911V26.6049L62.8046 26.6988C60.8617 28.3929 58.7136 29.435 56.3071 29.5096L56.1703 29.512H56.0335C50.0097 29.512 45.8502 25.2765 45.8502 19.2603C45.8502 13.2633 50.1085 9.00856 56.1855 9.00856C58.5869 9.00856 60.8592 9.82437 62.45 11.1455L62.5437 11.2249L62.6071 11.2803V1.5099H67.4327ZM116.171 8.48154C122.392 8.48154 127 12.8373 127 18.7332C127 24.6051 122.38 28.9849 116.171 28.9849C109.944 28.9849 105.379 24.6244 105.379 18.7332C105.379 12.8301 109.957 8.48154 116.171 8.48154ZM105.164 8.96284V13.1189L104.698 13.1213C101.516 13.2079 98.849 15.6409 98.7983 18.8415V18.9378V28.9344H94.2336V18.9402C94.2336 13.0491 98.6185 9.04225 104.604 8.96284L104.787 8.96043H105.164V8.96284ZM9.80333 1.50268C14.9558 1.50268 18.5427 4.51803 18.5427 8.84492C18.5427 11.2659 17.4003 13.4221 15.4573 14.659L15.3586 14.7192L15.4396 14.7505C18.3857 15.9152 19.9081 18.2423 19.9816 21.2288L19.9841 21.3419V21.4502C19.9841 25.6447 16.2958 28.8694 11.2472 28.9344H11.0927H0V1.50027H9.80333V1.50268ZM80.5672 13.1622C77.1043 13.1622 74.5636 15.6962 74.5636 19.2266C74.5636 22.7328 77.117 25.291 80.5672 25.291C84.0655 25.291 86.5708 22.7617 86.5708 19.2266C86.5708 15.6698 84.0781 13.1622 80.5672 13.1622ZM32.8678 13.1622C29.4049 13.1622 26.8642 15.6962 26.8642 19.2266C26.8642 22.7328 29.4176 25.291 32.8678 25.291C36.3661 25.291 38.8713 22.7617 38.8713 19.2266C38.8713 15.6698 36.3787 13.1622 32.8678 13.1622ZM56.7555 13.1622C53.2926 13.1622 50.7519 15.6962 50.7519 19.2266C50.7519 22.7328 53.3053 25.291 56.7555 25.291C60.2538 25.291 62.7591 22.7617 62.7591 19.2266C62.7591 15.6698 60.2664 13.1622 56.7555 13.1622ZM116.082 12.5726C112.645 12.5726 110.192 15.0826 110.192 18.637C110.192 22.1697 112.657 24.7014 116.082 24.7014C119.53 24.7014 121.972 22.1842 121.972 18.637C121.972 15.0681 119.542 12.5726 116.082 12.5726ZM10.7482 17.1449H4.83834V24.8458H10.5962C13.2408 24.8458 14.971 23.2502 14.971 21.0122C14.971 18.8584 13.2307 17.1834 10.8343 17.1449H10.7482ZM9.60574 5.59373H4.95233V13.0539H9.75773C12.111 13.0539 13.8184 11.4463 13.8184 9.34066C13.8184 7.18684 12.182 5.62983 9.69694 5.59373H9.60574Z" fill="black"/>
<path d="M120.953 7.40558C122.767 7.40558 124.236 6.00981 124.236 4.28675C124.236 2.56369 122.767 1.16792 120.953 1.16792C119.14 1.16792 117.67 2.56369 117.67 4.28675C117.67 6.00981 119.14 7.40558 120.953 7.40558Z" fill="#FF1F6D"/>
</svg>
