<svg width="127" height="31" viewBox="0 0 127 31" fill="none" xmlns="http://www.w3.org/2000/svg">
<path d="M32.3738 8.84846C35.0513 8.84846 37.4021 10.018 39.0233 11.6737V9.42602H43.545V28.7743H39.0233V26.5411L38.9651 26.606C37.4426 28.2617 35.1831 29.2821 32.5005 29.347L32.3586 29.3495H32.2243C26.1498 29.3495 21.965 25.102 21.965 19.0978C21.9625 13.1537 26.3195 8.84846 32.3738 8.84846ZM80.0732 8.84846C82.7508 8.84846 85.0078 9.92176 86.629 11.575L86.7227 11.6713V9.42362H91.2444V28.7719H86.7227V26.5387L86.6645 26.6036C85.1421 28.2593 82.8825 29.2797 80.1999 29.3446L80.058 29.347H79.9238C73.8492 29.347 69.6645 25.0996 69.6645 19.0954C69.6619 13.1537 74.019 8.84846 80.0732 8.84846ZM67.4327 1.34739V28.7743H62.911V26.4424L62.8046 26.5363C60.8617 28.2304 58.7136 29.2724 56.3071 29.347L56.1703 29.3495H56.0335C50.0097 29.3495 45.8502 25.114 45.8502 19.0978C45.8502 13.1008 50.1085 8.84606 56.1855 8.84606C58.5869 8.84606 60.8592 9.66186 62.45 10.983L62.5437 11.0624L62.6071 11.1178V1.34739H67.4327ZM116.171 8.31903C122.392 8.31903 127 12.6748 127 18.5707C127 24.4426 122.38 28.8224 116.171 28.8224C109.944 28.8224 105.379 24.4618 105.379 18.5707C105.379 12.6676 109.957 8.31903 116.171 8.31903ZM105.164 8.80033V12.9564L104.698 12.9588C101.516 13.0454 98.849 15.4784 98.7983 18.679V18.7753V28.7719H94.2336V18.7777C94.2336 12.8866 98.6185 8.87975 104.604 8.80033L104.787 8.79793H105.164V8.80033ZM9.80333 1.34018C14.9558 1.34018 18.5427 4.35552 18.5427 8.68241C18.5427 11.1034 17.4003 13.2596 15.4573 14.4965L15.3586 14.5567L15.4396 14.588C18.3857 15.7527 19.9081 18.0798 19.9816 21.0663L19.9841 21.1794V21.2877C19.9841 25.4822 16.2958 28.7069 11.2472 28.7719H11.0927H0V1.33777H9.80333V1.34018ZM80.5672 12.9997C77.1043 12.9997 74.5636 15.5337 74.5636 19.0641C74.5636 22.5703 77.117 25.1284 80.5672 25.1284C84.0655 25.1284 86.5708 22.5992 86.5708 19.0641C86.5708 15.5073 84.0781 12.9997 80.5672 12.9997ZM32.8678 12.9997C29.4049 12.9997 26.8642 15.5337 26.8642 19.0641C26.8642 22.5703 29.4176 25.1284 32.8678 25.1284C36.3661 25.1284 38.8713 22.5992 38.8713 19.0641C38.8713 15.5073 36.3787 12.9997 32.8678 12.9997ZM56.7555 12.9997C53.2926 12.9997 50.7519 15.5337 50.7519 19.0641C50.7519 22.5703 53.3053 25.1284 56.7555 25.1284C60.2538 25.1284 62.7591 22.5992 62.7591 19.0641C62.7591 15.5073 60.2664 12.9997 56.7555 12.9997ZM116.082 12.4101C112.645 12.4101 110.192 14.9201 110.192 18.4745C110.192 22.0072 112.657 24.5389 116.082 24.5389C119.53 24.5389 121.972 22.0217 121.972 18.4745C121.972 14.9056 119.542 12.4101 116.082 12.4101ZM10.7482 16.9824H4.83834V24.6832H10.5962C13.2408 24.6832 14.971 23.0877 14.971 20.8497C14.971 18.6959 13.2307 17.0209 10.8343 16.9824H10.7482ZM9.60574 5.43123H4.95233V12.8914H9.75773C12.111 12.8914 13.8184 11.2838 13.8184 9.17815C13.8184 7.02433 12.182 5.46733 9.69694 5.43123H9.60574Z" fill="black"/>
<path d="M120.953 7.24306C122.767 7.24306 124.236 5.84729 124.236 4.12423C124.236 2.40117 122.767 1.0054 120.953 1.0054C119.14 1.0054 117.67 2.40117 117.67 4.12423C117.67 5.84729 119.14 7.24306 120.953 7.24306Z" fill="white"/>
</svg>
